<svg xmlns="http://www.w3.org/2000/svg" version="1.1" xmlns:xlink="http://www.w3.org/1999/xlink" width="512" height="512" x="0" y="0" viewBox="0 0 64 64" style="enable-background:new 0 0 512 512" xml:space="preserve" class=""><g><path d="M63.947 35.548c-.623-2.584-4.35-5.478-9.064-7.038-3.403-1.125-12.171-3.033-20.05 3.542-5.28 4.406-7.289 10.896-4.884 15.78.103.21.218.414.333.616A39.854 39.854 0 0 1 27.09 50.1c-.85.38-1.86.38-2.7 0C9.26 43.22 2.46 29.79 2.46 22.44c0-2.88 1.15-5.63 3.23-7.76 2.36-2.42 5.98-3.55 9.69-3.02 4.02.58 7.4 2.94 9.27 6.47.21.4.63.65 1.09.65.45 0 .87-.25 1.09-.65 1.87-3.53 5.25-5.89 9.27-6.47 3.71-.53 7.33.6 9.69 3.03 2.08 2.12 3.23 4.87 3.23 7.75 0 .29-.02.58-.03.88-.05.68.46 1.26 1.14 1.31.66.04 1.27-.47 1.31-1.15.03-.35.04-.7.04-1.04 0-3.53-1.4-6.89-3.93-9.47-2.91-2.99-7.32-4.38-11.8-3.74-4.11.59-7.67 2.74-10.01 5.99-2.35-3.25-5.9-5.4-10.01-5.99-4.48-.65-8.89.75-11.8 3.73C1.4 15.55 0 18.92 0 22.44c0 9.47 8.74 23.25 23.37 29.9.75.34 1.56.51 2.37.51s1.62-.17 2.37-.51a44.101 44.101 0 0 0 3.618-1.869c2.404 2.74 5.994 4.453 9.686 4.457h.012c3.353 0 9.679-1.454 14.488-11.16 2.243-4.525 4.86-5.503 6.269-6.03.735-.274 2.103-.786 1.764-2.19zm-10.24 7.128c-3.126 6.314-7.488 9.79-12.281 9.79h-.01c-3.001-.002-5.909-1.41-7.85-3.642 3.276-4.737 7.006-8.243 11.114-10.397.601-.315.834-1.058.517-1.66a1.232 1.232 0 0 0-1.66-.518c-4.226 2.215-8.061 5.708-11.431 10.373-1.776-3.793.015-9.101 4.304-12.68 6.93-5.787 14.688-4.092 17.7-3.095 3.86 1.277 6.292 3.278 7.138 4.612-1.63.61-4.906 1.898-7.54 7.217z" fill="#8bb311" opacity="1" data-original="#000000" class=""></path></g></svg>