<svg xmlns="http://www.w3.org/2000/svg" version="1.1" xmlns:xlink="http://www.w3.org/1999/xlink" width="512" height="512" x="0" y="0" viewBox="0 0 32 32" style="enable-background:new 0 0 512 512" xml:space="preserve" class=""><g><g data-name="52-Group"><path d="M23 11a4 4 0 1 0-4-4 4 4 0 0 0 4 4zm0-6a2 2 0 1 1-2 2 2 2 0 0 1 2-2zM9 11a4 4 0 1 0-4-4 4 4 0 0 0 4 4zm0-6a2 2 0 1 1-2 2 2 2 0 0 1 2-2zM16 17a4 4 0 1 0-4-4 4 4 0 0 0 4 4zm0-6a2 2 0 1 1-2 2 2 2 0 0 1 2-2zM25 12h-2a1 1 0 0 0 0 2h2a3 3 0 0 1 3 3v4h-2a1 1 0 0 0 0 2h3a1 1 0 0 0 1-1v-5a5 5 0 0 0-5-5zM7 14h2a1 1 0 0 0 0-2H7a5 5 0 0 0-5 5v5a1 1 0 0 0 1 1h3a1 1 0 0 0 0-2H4v-4a3 3 0 0 1 3-3zM18 18h-4a5 5 0 0 0-5 5v5a1 1 0 0 0 1 1h12a1 1 0 0 0 1-1v-5a5 5 0 0 0-5-5zm3 9H11v-4a3 3 0 0 1 3-3h4a3 3 0 0 1 3 3z" fill="#164194" opacity="1" data-original="#000000"></path></g></g></svg>