<svg id="Group_2" data-name="Group 2" xmlns="http://www.w3.org/2000/svg" xmlns:xlink="http://www.w3.org/1999/xlink" width="184.826" height="91.712" viewBox="0 0 184.826 91.712">
  <defs>
    <clipPath id="clip-path">
      <rect id="Rectangle_9" data-name="Rectangle 9" width="184.826" height="91.712" fill="none"/>
    </clipPath>
  </defs>
  <g id="Group_1" data-name="Group 1" clip-path="url(#clip-path)">
    <path id="Path_6" data-name="Path 6" d="M134.12,48.324h-6.865q.165,2.292,2.888,2.292a5.636,5.636,0,0,0,3.053-.823v2.343a8.015,8.015,0,0,1-3.792.782,4.9,4.9,0,0,1-5.364-5.355,5.631,5.631,0,0,1,1.521-4.151,5.064,5.064,0,0,1,3.74-1.532,4.6,4.6,0,0,1,3.562,1.367,5.267,5.267,0,0,1,1.258,3.711Zm-3.011-1.994q0-2.261-1.829-2.261a1.745,1.745,0,0,0-1.351.647,2.934,2.934,0,0,0-.694,1.613Z" transform="translate(-29.279 -9.886)" fill="#8cb30f"/>
    <path id="Path_7" data-name="Path 7" d="M148.278,52.661h-3.073v-1.51h-.041a3.43,3.43,0,0,1-3.134,1.767,3.277,3.277,0,0,1-2.41-.868,3.112,3.112,0,0,1-.879-2.318q0-3.062,3.627-3.535l2.857-.38q0-1.727-1.87-1.727a6.389,6.389,0,0,0-3.577,1.12V42.765a8.043,8.043,0,0,1,1.856-.617,9.7,9.7,0,0,1,2.142-.267q4.5,0,4.5,4.491Zm-3.052-4.275v-.709l-1.911.247q-1.583.205-1.583,1.428a1.178,1.178,0,0,0,.386.91,1.481,1.481,0,0,0,1.043.354,1.926,1.926,0,0,0,1.49-.632,2.284,2.284,0,0,0,.575-1.6" transform="translate(-32.75 -9.886)" fill="#8cb30f"/>
    <rect id="Rectangle_1" data-name="Rectangle 1" width="3.248" height="15.579" transform="translate(118.098 27.196)" fill="#8cb30f"/>
    <path id="Path_8" data-name="Path 8" d="M168.486,51.629a4.8,4.8,0,0,1-2.168.38q-3.433,0-3.432-3.566v-4.82H161.18v-2.4h1.706v-2.27l3.237-.925v3.2h2.364v2.4h-2.364v4.254q0,1.644,1.3,1.644a2.2,2.2,0,0,0,1.059-.3Z" transform="translate(-38.046 -8.978)" fill="#8cb30f"/>
    <path id="Path_9" data-name="Path 9" d="M183.241,51.178H180V45.2q0-2.312-1.686-2.312a1.725,1.725,0,0,0-1.4.648,2.5,2.5,0,0,0-.535,1.644v6h-3.247V35.6h3.247v6.618h.041a3.689,3.689,0,0,1,3.238-1.819q3.576,0,3.576,4.316Z" transform="translate(-40.869 -8.403)" fill="#8cb30f"/>
    <path id="Path_10" data-name="Path 10" d="M199.31,42.217l-4.275,11.366q-1.541,4.1-4.645,4.1a5.958,5.958,0,0,1-1.943-.267v-2.59a2.736,2.736,0,0,0,1.408.38,1.759,1.759,0,0,0,1.747-1.182l.555-1.3-4.275-10.5h3.6l1.963,6.4a8.365,8.365,0,0,1,.288,1.408h.04a9.867,9.867,0,0,1,.339-1.387l1.984-6.423Z" transform="translate(-44.349 -9.965)" fill="#8cb30f"/>
    <path id="Path_11" data-name="Path 11" d="M104.17,76.484V61.747h5.364a6.7,6.7,0,0,1,3.792.9,2.908,2.908,0,0,1,1.325,2.549,3.017,3.017,0,0,1-.807,2.086,4.241,4.241,0,0,1-2.06,1.244v.04a4.091,4.091,0,0,1,2.513,1.161,3.248,3.248,0,0,1,.94,2.354,3.933,3.933,0,0,1-1.449,3.212,6.062,6.062,0,0,1-3.957,1.186Zm3.319-12.29v3.494h1.459a2.433,2.433,0,0,0,1.619-.5,1.7,1.7,0,0,0,.591-1.372q0-1.624-2.425-1.623Zm0,5.96v3.885h1.8a2.767,2.767,0,0,0,1.8-.535,1.786,1.786,0,0,0,.652-1.459,1.666,1.666,0,0,0-.642-1.387,2.843,2.843,0,0,0-1.793-.5Z" transform="translate(-24.589 -14.575)" fill="#8cb30f"/>
    <path id="Path_12" data-name="Path 12" d="M131.364,77.785h-3.237v-1.6h-.052a3.671,3.671,0,0,1-3.216,1.86q-3.659,0-3.659-4.429V67.262h3.237v6.063q0,2.23,1.768,2.23a1.751,1.751,0,0,0,1.4-.611,2.468,2.468,0,0,0,.524-1.66V67.262h3.237Z" transform="translate(-28.609 -15.877)" fill="#8cb30f"/>
    <path id="Path_13" data-name="Path 13" d="M139.657,64.051a1.9,1.9,0,0,1-1.346-.488,1.571,1.571,0,0,1-.524-1.2,1.516,1.516,0,0,1,.524-1.193,2.2,2.2,0,0,1,2.7,0,1.524,1.524,0,0,1,.519,1.193,1.566,1.566,0,0,1-.519,1.212,1.928,1.928,0,0,1-1.351.473m1.6,12.188h-3.248V65.716h3.248Z" transform="translate(-32.524 -14.331)" fill="#8cb30f"/>
    <rect id="Rectangle_2" data-name="Rectangle 2" width="3.248" height="15.579" transform="translate(111.47 46.329)" fill="#8cb30f"/>
    <path id="Path_14" data-name="Path 14" d="M163.845,76.223H160.6V74.774h-.041A3.64,3.64,0,0,1,157.3,76.48a3.991,3.991,0,0,1-3.176-1.392,5.766,5.766,0,0,1-1.2-3.89,6.273,6.273,0,0,1,1.325-4.183,4.324,4.324,0,0,1,3.474-1.572,2.954,2.954,0,0,1,2.836,1.459h.041V60.644h3.248Zm-3.186-5.118v-.791a2.49,2.49,0,0,0-.6-1.706,2.106,2.106,0,0,0-3.238.17,3.939,3.939,0,0,0-.606,2.328,3.408,3.408,0,0,0,.585,2.138,2.08,2.08,0,0,0,3.232-.041,3.3,3.3,0,0,0,.622-2.1" transform="translate(-36.096 -14.315)" fill="#8cb30f"/>
    <path id="Path_15" data-name="Path 15" d="M172.372,64.051a1.9,1.9,0,0,1-1.346-.488,1.573,1.573,0,0,1-.524-1.2,1.519,1.519,0,0,1,.524-1.193,2.2,2.2,0,0,1,2.7,0,1.525,1.525,0,0,1,.52,1.193,1.566,1.566,0,0,1-.52,1.212,1.927,1.927,0,0,1-1.351.473m1.6,12.188h-3.248V65.716h3.248Z" transform="translate(-40.246 -14.331)" fill="#8cb30f"/>
    <path id="Path_16" data-name="Path 16" d="M188.791,77.706h-3.237V71.859q0-2.447-1.747-2.446a1.733,1.733,0,0,0-1.387.648,2.463,2.463,0,0,0-.545,1.644v6h-3.248V67.183h3.248v1.665h.041a3.72,3.72,0,0,1,3.381-1.921q3.494,0,3.494,4.337Z" transform="translate(-42.164 -15.798)" fill="#8cb30f"/>
    <path id="Path_17" data-name="Path 17" d="M205.418,76.5a5.955,5.955,0,0,1-1.7,4.537,6.873,6.873,0,0,1-4.912,1.608,7.787,7.787,0,0,1-3.371-.607V79.31a6.455,6.455,0,0,0,3.278.946,3.53,3.53,0,0,0,2.549-.869,3.117,3.117,0,0,0,.9-2.358V76.2h-.041a3.626,3.626,0,0,1-3.278,1.768,3.941,3.941,0,0,1-3.2-1.419,5.746,5.746,0,0,1-1.182-3.8,6.405,6.405,0,0,1,1.315-4.245,4.3,4.3,0,0,1,3.464-1.572,3.2,3.2,0,0,1,2.877,1.48h.041V67.183h3.248Zm-3.206-3.854v-.833a2.56,2.56,0,0,0-.591-1.7,1.913,1.913,0,0,0-1.537-.7,1.985,1.985,0,0,0-1.7.843,3.962,3.962,0,0,0-.617,2.374,3.345,3.345,0,0,0,.585,2.081,1.91,1.91,0,0,0,1.6.765,1.987,1.987,0,0,0,1.629-.775,3.18,3.18,0,0,0,.622-2.05" transform="translate(-45.905 -15.798)" fill="#8cb30f"/>
    <path id="Path_18" data-name="Path 18" d="M120.962,101.529h-3.278V92.711q0-1.428.123-3.155h-.082a15.513,15.513,0,0,1-.463,1.953l-3.453,10.02H111.1l-3.515-9.917a19.458,19.458,0,0,1-.462-2.056h-.092q.133,2.18.134,3.823v8.15H104.17V86.792h4.861l3.012,8.735a12.4,12.4,0,0,1,.524,2.107h.061a21.2,21.2,0,0,1,.586-2.128l3.011-8.714h4.737Z" transform="translate(-24.589 -20.487)" fill="#8cb30f"/>
    <path id="Path_19" data-name="Path 19" d="M134.94,103.009a5.656,5.656,0,0,1-4.136-1.474,6.1,6.1,0,0,1,.057-8.088,5.9,5.9,0,0,1,4.224-1.474,5.589,5.589,0,0,1,4.111,1.474,5.244,5.244,0,0,1,1.49,3.9,5.563,5.563,0,0,1-1.536,4.141,5.718,5.718,0,0,1-4.209,1.521m.083-8.55a2.165,2.165,0,0,0-1.788.791,3.49,3.49,0,0,0-.637,2.24q0,3.032,2.446,3.032,2.333,0,2.333-3.114,0-2.95-2.354-2.95" transform="translate(-30.52 -21.71)" fill="#8cb30f"/>
    <path id="Path_20" data-name="Path 20" d="M156.571,92.308l-3.915,10.523h-3.7l-3.73-10.523H148.7l1.829,6.484a9.491,9.491,0,0,1,.36,1.871h.041a10.494,10.494,0,0,1,.38-1.809l1.87-6.546Z" transform="translate(-34.28 -21.789)" fill="#8cb30f"/>
    <path id="Path_21" data-name="Path 21" d="M171.153,98.415h-6.865q.165,2.292,2.889,2.292a5.635,5.635,0,0,0,3.052-.823v2.343a8.015,8.015,0,0,1-3.792.782,4.9,4.9,0,0,1-5.364-5.355,5.631,5.631,0,0,1,1.521-4.151,5.064,5.064,0,0,1,3.74-1.532,4.6,4.6,0,0,1,3.562,1.367,5.267,5.267,0,0,1,1.258,3.711Zm-3.011-1.994q0-2.261-1.829-2.261a1.745,1.745,0,0,0-1.351.647,2.934,2.934,0,0,0-.694,1.613Z" transform="translate(-38.021 -21.709)" fill="#8cb30f"/>
    <path id="Path_22" data-name="Path 22" d="M193.508,102.751h-3.237v-6q0-2.292-1.686-2.292a1.549,1.549,0,0,0-1.3.688,2.833,2.833,0,0,0-.5,1.717v5.889h-3.248V96.688q0-2.23-1.655-2.23a1.586,1.586,0,0,0-1.331.658,2.894,2.894,0,0,0-.5,1.788v5.847H176.8V92.228h3.248v1.644h.041a3.983,3.983,0,0,1,3.4-1.9,3.029,3.029,0,0,1,3.052,1.963,3.893,3.893,0,0,1,3.536-1.963q3.432,0,3.432,4.234Z" transform="translate(-41.733 -21.709)" fill="#8cb30f"/>
    <path id="Path_23" data-name="Path 23" d="M211.294,98.415h-6.865q.165,2.292,2.889,2.292a5.635,5.635,0,0,0,3.052-.823v2.343a8.015,8.015,0,0,1-3.792.782,4.9,4.9,0,0,1-5.365-5.355,5.631,5.631,0,0,1,1.521-4.151,5.064,5.064,0,0,1,3.74-1.532,4.6,4.6,0,0,1,3.562,1.367,5.267,5.267,0,0,1,1.258,3.711Zm-3.011-1.994q0-2.261-1.829-2.261a1.745,1.745,0,0,0-1.351.647,2.934,2.934,0,0,0-.694,1.613Z" transform="translate(-47.496 -21.709)" fill="#8cb30f"/>
    <path id="Path_24" data-name="Path 24" d="M227.1,102.751h-3.237V96.9q0-2.445-1.747-2.446a1.733,1.733,0,0,0-1.387.648,2.463,2.463,0,0,0-.545,1.644v6h-3.248V92.228h3.248v1.665h.041a3.72,3.72,0,0,1,3.38-1.921q3.494,0,3.494,4.337Z" transform="translate(-51.208 -21.709)" fill="#8cb30f"/>
    <path id="Path_25" data-name="Path 25" d="M239.675,101.72a4.8,4.8,0,0,1-2.168.38q-3.433,0-3.432-3.566v-4.82h-1.706V91.32h1.706v-2.27l3.237-.925v3.2h2.364v2.395h-2.364v4.254q0,1.644,1.3,1.644a2.2,2.2,0,0,0,1.059-.3Z" transform="translate(-54.85 -20.801)" fill="#8cb30f"/>
    <path id="Path_26" data-name="Path 26" d="M0,95.1,18.079,84.658l44.331,16.6L44.331,111.695Z" transform="translate(0 -19.983)" fill="#8cb30f"/>
    <path id="Path_27" data-name="Path 27" d="M58.028,100.066,76.107,89.628V35.391L58.028,45.829Z" transform="translate(-13.697 -8.354)" fill="#d0cd00"/>
    <path id="Path_28" data-name="Path 28" d="M0,78.337,18.079,67.9V13.663L0,24.1Z" transform="translate(0 -3.225)" fill="#3e9925"/>
    <path id="Path_29" data-name="Path 29" d="M23.665,10.438,41.744,0,68,27.037,49.917,37.475Z" transform="translate(-5.586 0)" fill="#257b2a"/>
    <path id="Path_30" data-name="Path 30" d="M116.923,51.438h-3.329v-6h-6.1v6H104.17V36.7h3.319V42.58h6.1V36.7h3.329Z" transform="translate(-24.589 -8.663)" fill="#8cb30f"/>
    <path id="Path_31" data-name="Path 31" d="M134.12,48.324h-6.865q.165,2.292,2.888,2.292a5.636,5.636,0,0,0,3.053-.823v2.343a8.015,8.015,0,0,1-3.792.782,4.9,4.9,0,0,1-5.364-5.355,5.631,5.631,0,0,1,1.521-4.151,5.064,5.064,0,0,1,3.74-1.532,4.6,4.6,0,0,1,3.562,1.367,5.267,5.267,0,0,1,1.258,3.711Zm-3.011-1.994q0-2.261-1.829-2.261a1.745,1.745,0,0,0-1.351.647,2.934,2.934,0,0,0-.694,1.613Z" transform="translate(-29.279 -9.886)" fill="#8cb30f"/>
    <path id="Path_32" data-name="Path 32" d="M148.278,52.661h-3.073v-1.51h-.041a3.43,3.43,0,0,1-3.134,1.767,3.277,3.277,0,0,1-2.41-.868,3.112,3.112,0,0,1-.879-2.318q0-3.062,3.627-3.535l2.857-.38q0-1.727-1.87-1.727a6.389,6.389,0,0,0-3.577,1.12V42.765a8.043,8.043,0,0,1,1.856-.617,9.7,9.7,0,0,1,2.142-.267q4.5,0,4.5,4.491Zm-3.052-4.275v-.709l-1.911.247q-1.583.205-1.583,1.428a1.178,1.178,0,0,0,.386.91,1.481,1.481,0,0,0,1.043.354,1.926,1.926,0,0,0,1.49-.632,2.284,2.284,0,0,0,.575-1.6" transform="translate(-32.75 -9.886)" fill="#8cb30f"/>
    <rect id="Rectangle_3" data-name="Rectangle 3" width="3.248" height="15.579" transform="translate(118.098 27.196)" fill="#8cb30f"/>
    <path id="Path_33" data-name="Path 33" d="M168.486,51.629a4.8,4.8,0,0,1-2.168.38q-3.433,0-3.432-3.566v-4.82H161.18v-2.4h1.706v-2.27l3.237-.925v3.2h2.364v2.4h-2.364v4.254q0,1.644,1.3,1.644a2.2,2.2,0,0,0,1.059-.3Z" transform="translate(-38.046 -8.978)" fill="#8cb30f"/>
    <path id="Path_34" data-name="Path 34" d="M183.241,51.178H180V45.2q0-2.312-1.686-2.312a1.725,1.725,0,0,0-1.4.648,2.5,2.5,0,0,0-.535,1.644v6h-3.247V35.6h3.247v6.618h.041a3.689,3.689,0,0,1,3.238-1.819q3.576,0,3.576,4.316Z" transform="translate(-40.869 -8.403)" fill="#8cb30f"/>
    <path id="Path_35" data-name="Path 35" d="M199.31,42.217l-4.275,11.366q-1.541,4.1-4.645,4.1a5.958,5.958,0,0,1-1.943-.267v-2.59a2.736,2.736,0,0,0,1.408.38,1.759,1.759,0,0,0,1.747-1.182l.555-1.3-4.275-10.5h3.6l1.963,6.4a8.365,8.365,0,0,1,.288,1.408h.04a9.867,9.867,0,0,1,.339-1.387l1.984-6.423Z" transform="translate(-44.349 -9.965)" fill="#8cb30f"/>
    <path id="Path_36" data-name="Path 36" d="M104.17,76.484V61.747h5.364a6.7,6.7,0,0,1,3.792.9,2.908,2.908,0,0,1,1.325,2.549,3.017,3.017,0,0,1-.807,2.086,4.241,4.241,0,0,1-2.06,1.244v.04a4.091,4.091,0,0,1,2.513,1.161,3.248,3.248,0,0,1,.94,2.354,3.933,3.933,0,0,1-1.449,3.212,6.062,6.062,0,0,1-3.957,1.186Zm3.319-12.29v3.494h1.459a2.433,2.433,0,0,0,1.619-.5,1.7,1.7,0,0,0,.591-1.372q0-1.624-2.425-1.623Zm0,5.96v3.885h1.8a2.767,2.767,0,0,0,1.8-.535,1.786,1.786,0,0,0,.652-1.459,1.666,1.666,0,0,0-.642-1.387,2.843,2.843,0,0,0-1.793-.5Z" transform="translate(-24.589 -14.575)" fill="#8cb30f"/>
    <path id="Path_37" data-name="Path 37" d="M131.364,77.785h-3.237v-1.6h-.052a3.671,3.671,0,0,1-3.216,1.86q-3.659,0-3.659-4.429V67.262h3.237v6.063q0,2.23,1.768,2.23a1.751,1.751,0,0,0,1.4-.611,2.468,2.468,0,0,0,.524-1.66V67.262h3.237Z" transform="translate(-28.609 -15.877)" fill="#8cb30f"/>
    <path id="Path_38" data-name="Path 38" d="M139.657,64.051a1.9,1.9,0,0,1-1.346-.488,1.571,1.571,0,0,1-.524-1.2,1.516,1.516,0,0,1,.524-1.193,2.2,2.2,0,0,1,2.7,0,1.524,1.524,0,0,1,.519,1.193,1.566,1.566,0,0,1-.519,1.212,1.928,1.928,0,0,1-1.351.473m1.6,12.188h-3.248V65.716h3.248Z" transform="translate(-32.524 -14.331)" fill="#8cb30f"/>
    <rect id="Rectangle_4" data-name="Rectangle 4" width="3.248" height="15.579" transform="translate(111.47 46.329)" fill="#8cb30f"/>
    <path id="Path_39" data-name="Path 39" d="M163.845,76.223H160.6V74.774h-.041A3.64,3.64,0,0,1,157.3,76.48a3.991,3.991,0,0,1-3.176-1.392,5.766,5.766,0,0,1-1.2-3.89,6.273,6.273,0,0,1,1.325-4.183,4.324,4.324,0,0,1,3.474-1.572,2.954,2.954,0,0,1,2.836,1.459h.041V60.644h3.248Zm-3.186-5.118v-.791a2.49,2.49,0,0,0-.6-1.706,2.106,2.106,0,0,0-3.238.17,3.939,3.939,0,0,0-.606,2.328,3.408,3.408,0,0,0,.585,2.138,2.08,2.08,0,0,0,3.232-.041,3.3,3.3,0,0,0,.622-2.1" transform="translate(-36.096 -14.315)" fill="#8cb30f"/>
    <path id="Path_40" data-name="Path 40" d="M172.372,64.051a1.9,1.9,0,0,1-1.346-.488,1.573,1.573,0,0,1-.524-1.2,1.519,1.519,0,0,1,.524-1.193,2.2,2.2,0,0,1,2.7,0,1.525,1.525,0,0,1,.52,1.193,1.566,1.566,0,0,1-.52,1.212,1.927,1.927,0,0,1-1.351.473m1.6,12.188h-3.248V65.716h3.248Z" transform="translate(-40.246 -14.331)" fill="#8cb30f"/>
    <path id="Path_41" data-name="Path 41" d="M188.791,77.706h-3.237V71.859q0-2.447-1.747-2.446a1.733,1.733,0,0,0-1.387.648,2.463,2.463,0,0,0-.545,1.644v6h-3.248V67.183h3.248v1.665h.041a3.72,3.72,0,0,1,3.381-1.921q3.494,0,3.494,4.337Z" transform="translate(-42.164 -15.798)" fill="#8cb30f"/>
    <path id="Path_42" data-name="Path 42" d="M205.418,76.5a5.955,5.955,0,0,1-1.7,4.537,6.873,6.873,0,0,1-4.912,1.608,7.787,7.787,0,0,1-3.371-.607V79.31a6.455,6.455,0,0,0,3.278.946,3.53,3.53,0,0,0,2.549-.869,3.117,3.117,0,0,0,.9-2.358V76.2h-.041a3.626,3.626,0,0,1-3.278,1.768,3.941,3.941,0,0,1-3.2-1.419,5.746,5.746,0,0,1-1.182-3.8,6.405,6.405,0,0,1,1.315-4.245,4.3,4.3,0,0,1,3.464-1.572,3.2,3.2,0,0,1,2.877,1.48h.041V67.183h3.248Zm-3.206-3.854v-.833a2.56,2.56,0,0,0-.591-1.7,1.913,1.913,0,0,0-1.537-.7,1.985,1.985,0,0,0-1.7.843,3.962,3.962,0,0,0-.617,2.374,3.345,3.345,0,0,0,.585,2.081,1.91,1.91,0,0,0,1.6.765,1.987,1.987,0,0,0,1.629-.775,3.18,3.18,0,0,0,.622-2.05" transform="translate(-45.905 -15.798)" fill="#8cb30f"/>
    <path id="Path_43" data-name="Path 43" d="M120.962,101.529h-3.278V92.711q0-1.428.123-3.155h-.082a15.513,15.513,0,0,1-.463,1.953l-3.453,10.02H111.1l-3.515-9.917a19.458,19.458,0,0,1-.462-2.056h-.092q.133,2.18.134,3.823v8.15H104.17V86.792h4.861l3.012,8.735a12.4,12.4,0,0,1,.524,2.107h.061a21.2,21.2,0,0,1,.586-2.128l3.011-8.714h4.737Z" transform="translate(-24.589 -20.487)" fill="#8cb30f"/>
    <path id="Path_44" data-name="Path 44" d="M134.94,103.009a5.656,5.656,0,0,1-4.136-1.474,6.1,6.1,0,0,1,.057-8.088,5.9,5.9,0,0,1,4.224-1.474,5.589,5.589,0,0,1,4.111,1.474,5.244,5.244,0,0,1,1.49,3.9,5.563,5.563,0,0,1-1.536,4.141,5.718,5.718,0,0,1-4.209,1.521m.083-8.55a2.165,2.165,0,0,0-1.788.791,3.49,3.49,0,0,0-.637,2.24q0,3.032,2.446,3.032,2.333,0,2.333-3.114,0-2.95-2.354-2.95" transform="translate(-30.52 -21.71)" fill="#8cb30f"/>
    <path id="Path_45" data-name="Path 45" d="M156.571,92.308l-3.915,10.523h-3.7l-3.73-10.523H148.7l1.829,6.484a9.491,9.491,0,0,1,.36,1.871h.041a10.494,10.494,0,0,1,.38-1.809l1.87-6.546Z" transform="translate(-34.28 -21.789)" fill="#8cb30f"/>
    <path id="Path_46" data-name="Path 46" d="M171.153,98.415h-6.865q.165,2.292,2.889,2.292a5.635,5.635,0,0,0,3.052-.823v2.343a8.015,8.015,0,0,1-3.792.782,4.9,4.9,0,0,1-5.364-5.355,5.631,5.631,0,0,1,1.521-4.151,5.064,5.064,0,0,1,3.74-1.532,4.6,4.6,0,0,1,3.562,1.367,5.267,5.267,0,0,1,1.258,3.711Zm-3.011-1.994q0-2.261-1.829-2.261a1.745,1.745,0,0,0-1.351.647,2.934,2.934,0,0,0-.694,1.613Z" transform="translate(-38.021 -21.709)" fill="#8cb30f"/>
    <path id="Path_47" data-name="Path 47" d="M193.508,102.751h-3.237v-6q0-2.292-1.686-2.292a1.549,1.549,0,0,0-1.3.688,2.833,2.833,0,0,0-.5,1.717v5.889h-3.248V96.688q0-2.23-1.655-2.23a1.586,1.586,0,0,0-1.331.658,2.894,2.894,0,0,0-.5,1.788v5.847H176.8V92.228h3.248v1.644h.041a3.983,3.983,0,0,1,3.4-1.9,3.029,3.029,0,0,1,3.052,1.963,3.893,3.893,0,0,1,3.536-1.963q3.432,0,3.432,4.234Z" transform="translate(-41.733 -21.709)" fill="#8cb30f"/>
    <path id="Path_48" data-name="Path 48" d="M211.294,98.415h-6.865q.165,2.292,2.889,2.292a5.635,5.635,0,0,0,3.052-.823v2.343a8.015,8.015,0,0,1-3.792.782,4.9,4.9,0,0,1-5.365-5.355,5.631,5.631,0,0,1,1.521-4.151,5.064,5.064,0,0,1,3.74-1.532,4.6,4.6,0,0,1,3.562,1.367,5.267,5.267,0,0,1,1.258,3.711Zm-3.011-1.994q0-2.261-1.829-2.261a1.745,1.745,0,0,0-1.351.647,2.934,2.934,0,0,0-.694,1.613Z" transform="translate(-47.496 -21.709)" fill="#8cb30f"/>
    <path id="Path_49" data-name="Path 49" d="M227.1,102.751h-3.237V96.9q0-2.445-1.747-2.446a1.733,1.733,0,0,0-1.387.648,2.463,2.463,0,0,0-.545,1.644v6h-3.248V92.228h3.248v1.665h.041a3.72,3.72,0,0,1,3.38-1.921q3.494,0,3.494,4.337Z" transform="translate(-51.208 -21.709)" fill="#8cb30f"/>
    <path id="Path_50" data-name="Path 50" d="M239.675,101.72a4.8,4.8,0,0,1-2.168.38q-3.433,0-3.432-3.566v-4.82h-1.706V91.32h1.706v-2.27l3.237-.925v3.2h2.364v2.395h-2.364v4.254q0,1.644,1.3,1.644a2.2,2.2,0,0,0,1.059-.3Z" transform="translate(-54.85 -20.801)" fill="#8cb30f"/>
    <path id="Path_51" data-name="Path 51" d="M0,95.1,18.079,84.658l44.331,16.6L44.331,111.695Z" transform="translate(0 -19.983)" fill="#d0cd00"/>
    <path id="Path_52" data-name="Path 52" d="M58.028,100.066,76.107,89.628V35.391L58.028,45.829Z" transform="translate(-13.697 -8.354)" fill="#257b2a"/>
    <path id="Path_53" data-name="Path 53" d="M0,78.337,18.079,67.9V13.663L0,24.1Z" transform="translate(0 -3.225)" fill="#8cb30f"/>
    <path id="Path_54" data-name="Path 54" d="M23.665,10.438,41.744,0,68,27.037,49.917,37.475Z" transform="translate(-5.586 0)" fill="#3e9925"/>
    <path id="Path_55" data-name="Path 55" d="M116.923,51.438h-3.329v-6h-6.1v6H104.17V36.7h3.319V42.58h6.1V36.7h3.329Z" transform="translate(-24.589 -8.663)" fill="#8cb30f"/>
    <path id="Path_56" data-name="Path 56" d="M134.12,48.324h-6.865q.165,2.292,2.888,2.292a5.636,5.636,0,0,0,3.053-.823v2.343a8.015,8.015,0,0,1-3.792.782,4.9,4.9,0,0,1-5.364-5.355,5.631,5.631,0,0,1,1.521-4.151,5.064,5.064,0,0,1,3.74-1.532,4.6,4.6,0,0,1,3.562,1.367,5.267,5.267,0,0,1,1.258,3.711Zm-3.011-1.994q0-2.261-1.829-2.261a1.745,1.745,0,0,0-1.351.647,2.934,2.934,0,0,0-.694,1.613Z" transform="translate(-29.279 -9.886)" fill="#8cb30f"/>
    <path id="Path_57" data-name="Path 57" d="M148.278,52.661h-3.073v-1.51h-.041a3.43,3.43,0,0,1-3.134,1.767,3.277,3.277,0,0,1-2.41-.868,3.112,3.112,0,0,1-.879-2.318q0-3.062,3.627-3.535l2.857-.38q0-1.727-1.87-1.727a6.389,6.389,0,0,0-3.577,1.12V42.765a8.043,8.043,0,0,1,1.856-.617,9.7,9.7,0,0,1,2.142-.267q4.5,0,4.5,4.491Zm-3.052-4.275v-.709l-1.911.247q-1.583.205-1.583,1.428a1.178,1.178,0,0,0,.386.91,1.481,1.481,0,0,0,1.043.354,1.926,1.926,0,0,0,1.49-.632,2.284,2.284,0,0,0,.575-1.6" transform="translate(-32.75 -9.886)" fill="#8cb30f"/>
    <rect id="Rectangle_5" data-name="Rectangle 5" width="3.248" height="15.579" transform="translate(118.098 27.196)" fill="#8cb30f"/>
    <path id="Path_58" data-name="Path 58" d="M168.486,51.629a4.8,4.8,0,0,1-2.168.38q-3.433,0-3.432-3.566v-4.82H161.18v-2.4h1.706v-2.27l3.237-.925v3.2h2.364v2.4h-2.364v4.254q0,1.644,1.3,1.644a2.2,2.2,0,0,0,1.059-.3Z" transform="translate(-38.046 -8.978)" fill="#8cb30f"/>
    <path id="Path_59" data-name="Path 59" d="M183.241,51.178H180V45.2q0-2.312-1.686-2.312a1.725,1.725,0,0,0-1.4.648,2.5,2.5,0,0,0-.535,1.644v6h-3.247V35.6h3.247v6.618h.041a3.689,3.689,0,0,1,3.238-1.819q3.576,0,3.576,4.316Z" transform="translate(-40.869 -8.403)" fill="#8cb30f"/>
    <path id="Path_60" data-name="Path 60" d="M199.31,42.217l-4.275,11.366q-1.541,4.1-4.645,4.1a5.958,5.958,0,0,1-1.943-.267v-2.59a2.736,2.736,0,0,0,1.408.38,1.759,1.759,0,0,0,1.747-1.182l.555-1.3-4.275-10.5h3.6l1.963,6.4a8.365,8.365,0,0,1,.288,1.408h.04a9.867,9.867,0,0,1,.339-1.387l1.984-6.423Z" transform="translate(-44.349 -9.965)" fill="#8cb30f"/>
    <path id="Path_61" data-name="Path 61" d="M104.17,76.484V61.747h5.364a6.7,6.7,0,0,1,3.792.9,2.908,2.908,0,0,1,1.325,2.549,3.017,3.017,0,0,1-.807,2.086,4.241,4.241,0,0,1-2.06,1.244v.04a4.091,4.091,0,0,1,2.513,1.161,3.248,3.248,0,0,1,.94,2.354,3.933,3.933,0,0,1-1.449,3.212,6.062,6.062,0,0,1-3.957,1.186Zm3.319-12.29v3.494h1.459a2.433,2.433,0,0,0,1.619-.5,1.7,1.7,0,0,0,.591-1.372q0-1.624-2.425-1.623Zm0,5.96v3.885h1.8a2.767,2.767,0,0,0,1.8-.535,1.786,1.786,0,0,0,.652-1.459,1.666,1.666,0,0,0-.642-1.387,2.843,2.843,0,0,0-1.793-.5Z" transform="translate(-24.589 -14.575)" fill="#8cb30f"/>
    <path id="Path_62" data-name="Path 62" d="M131.364,77.785h-3.237v-1.6h-.052a3.671,3.671,0,0,1-3.216,1.86q-3.659,0-3.659-4.429V67.262h3.237v6.063q0,2.23,1.768,2.23a1.751,1.751,0,0,0,1.4-.611,2.468,2.468,0,0,0,.524-1.66V67.262h3.237Z" transform="translate(-28.609 -15.877)" fill="#8cb30f"/>
    <path id="Path_63" data-name="Path 63" d="M139.657,64.051a1.9,1.9,0,0,1-1.346-.488,1.571,1.571,0,0,1-.524-1.2,1.516,1.516,0,0,1,.524-1.193,2.2,2.2,0,0,1,2.7,0,1.524,1.524,0,0,1,.519,1.193,1.566,1.566,0,0,1-.519,1.212,1.928,1.928,0,0,1-1.351.473m1.6,12.188h-3.248V65.716h3.248Z" transform="translate(-32.524 -14.331)" fill="#8cb30f"/>
    <rect id="Rectangle_6" data-name="Rectangle 6" width="3.248" height="15.579" transform="translate(111.47 46.329)" fill="#8cb30f"/>
    <path id="Path_64" data-name="Path 64" d="M163.845,76.223H160.6V74.774h-.041A3.64,3.64,0,0,1,157.3,76.48a3.991,3.991,0,0,1-3.176-1.392,5.766,5.766,0,0,1-1.2-3.89,6.273,6.273,0,0,1,1.325-4.183,4.324,4.324,0,0,1,3.474-1.572,2.954,2.954,0,0,1,2.836,1.459h.041V60.644h3.248Zm-3.186-5.118v-.791a2.49,2.49,0,0,0-.6-1.706,2.106,2.106,0,0,0-3.238.17,3.939,3.939,0,0,0-.606,2.328,3.408,3.408,0,0,0,.585,2.138,2.08,2.08,0,0,0,3.232-.041,3.3,3.3,0,0,0,.622-2.1" transform="translate(-36.096 -14.315)" fill="#8cb30f"/>
    <path id="Path_65" data-name="Path 65" d="M172.372,64.051a1.9,1.9,0,0,1-1.346-.488,1.573,1.573,0,0,1-.524-1.2,1.519,1.519,0,0,1,.524-1.193,2.2,2.2,0,0,1,2.7,0,1.525,1.525,0,0,1,.52,1.193,1.566,1.566,0,0,1-.52,1.212,1.927,1.927,0,0,1-1.351.473m1.6,12.188h-3.248V65.716h3.248Z" transform="translate(-40.246 -14.331)" fill="#8cb30f"/>
    <path id="Path_66" data-name="Path 66" d="M188.791,77.706h-3.237V71.859q0-2.447-1.747-2.446a1.733,1.733,0,0,0-1.387.648,2.463,2.463,0,0,0-.545,1.644v6h-3.248V67.183h3.248v1.665h.041a3.72,3.72,0,0,1,3.381-1.921q3.494,0,3.494,4.337Z" transform="translate(-42.164 -15.798)" fill="#8cb30f"/>
    <path id="Path_67" data-name="Path 67" d="M205.418,76.5a5.955,5.955,0,0,1-1.7,4.537,6.873,6.873,0,0,1-4.912,1.608,7.787,7.787,0,0,1-3.371-.607V79.31a6.455,6.455,0,0,0,3.278.946,3.53,3.53,0,0,0,2.549-.869,3.117,3.117,0,0,0,.9-2.358V76.2h-.041a3.626,3.626,0,0,1-3.278,1.768,3.941,3.941,0,0,1-3.2-1.419,5.746,5.746,0,0,1-1.182-3.8,6.405,6.405,0,0,1,1.315-4.245,4.3,4.3,0,0,1,3.464-1.572,3.2,3.2,0,0,1,2.877,1.48h.041V67.183h3.248Zm-3.206-3.854v-.833a2.56,2.56,0,0,0-.591-1.7,1.913,1.913,0,0,0-1.537-.7,1.985,1.985,0,0,0-1.7.843,3.962,3.962,0,0,0-.617,2.374,3.345,3.345,0,0,0,.585,2.081,1.91,1.91,0,0,0,1.6.765,1.987,1.987,0,0,0,1.629-.775,3.18,3.18,0,0,0,.622-2.05" transform="translate(-45.905 -15.798)" fill="#8cb30f"/>
    <path id="Path_68" data-name="Path 68" d="M120.962,101.529h-3.278V92.711q0-1.428.123-3.155h-.082a15.513,15.513,0,0,1-.463,1.953l-3.453,10.02H111.1l-3.515-9.917a19.458,19.458,0,0,1-.462-2.056h-.092q.133,2.18.134,3.823v8.15H104.17V86.792h4.861l3.012,8.735a12.4,12.4,0,0,1,.524,2.107h.061a21.2,21.2,0,0,1,.586-2.128l3.011-8.714h4.737Z" transform="translate(-24.589 -20.487)" fill="#8cb30f"/>
    <path id="Path_69" data-name="Path 69" d="M134.94,103.009a5.656,5.656,0,0,1-4.136-1.474,6.1,6.1,0,0,1,.057-8.088,5.9,5.9,0,0,1,4.224-1.474,5.589,5.589,0,0,1,4.111,1.474,5.244,5.244,0,0,1,1.49,3.9,5.563,5.563,0,0,1-1.536,4.141,5.718,5.718,0,0,1-4.209,1.521m.083-8.55a2.165,2.165,0,0,0-1.788.791,3.49,3.49,0,0,0-.637,2.24q0,3.032,2.446,3.032,2.333,0,2.333-3.114,0-2.95-2.354-2.95" transform="translate(-30.52 -21.71)" fill="#8cb30f"/>
    <path id="Path_70" data-name="Path 70" d="M156.571,92.308l-3.915,10.523h-3.7l-3.73-10.523H148.7l1.829,6.484a9.491,9.491,0,0,1,.36,1.871h.041a10.494,10.494,0,0,1,.38-1.809l1.87-6.546Z" transform="translate(-34.28 -21.789)" fill="#8cb30f"/>
    <path id="Path_71" data-name="Path 71" d="M171.153,98.415h-6.865q.165,2.292,2.889,2.292a5.635,5.635,0,0,0,3.052-.823v2.343a8.015,8.015,0,0,1-3.792.782,4.9,4.9,0,0,1-5.364-5.355,5.631,5.631,0,0,1,1.521-4.151,5.064,5.064,0,0,1,3.74-1.532,4.6,4.6,0,0,1,3.562,1.367,5.267,5.267,0,0,1,1.258,3.711Zm-3.011-1.994q0-2.261-1.829-2.261a1.745,1.745,0,0,0-1.351.647,2.934,2.934,0,0,0-.694,1.613Z" transform="translate(-38.021 -21.709)" fill="#8cb30f"/>
    <path id="Path_72" data-name="Path 72" d="M193.508,102.751h-3.237v-6q0-2.292-1.686-2.292a1.549,1.549,0,0,0-1.3.688,2.833,2.833,0,0,0-.5,1.717v5.889h-3.248V96.688q0-2.23-1.655-2.23a1.586,1.586,0,0,0-1.331.658,2.894,2.894,0,0,0-.5,1.788v5.847H176.8V92.228h3.248v1.644h.041a3.983,3.983,0,0,1,3.4-1.9,3.029,3.029,0,0,1,3.052,1.963,3.893,3.893,0,0,1,3.536-1.963q3.432,0,3.432,4.234Z" transform="translate(-41.733 -21.709)" fill="#8cb30f"/>
    <path id="Path_73" data-name="Path 73" d="M211.294,98.415h-6.865q.165,2.292,2.889,2.292a5.635,5.635,0,0,0,3.052-.823v2.343a8.015,8.015,0,0,1-3.792.782,4.9,4.9,0,0,1-5.365-5.355,5.631,5.631,0,0,1,1.521-4.151,5.064,5.064,0,0,1,3.74-1.532,4.6,4.6,0,0,1,3.562,1.367,5.267,5.267,0,0,1,1.258,3.711Zm-3.011-1.994q0-2.261-1.829-2.261a1.745,1.745,0,0,0-1.351.647,2.934,2.934,0,0,0-.694,1.613Z" transform="translate(-47.496 -21.709)" fill="#8cb30f"/>
    <path id="Path_74" data-name="Path 74" d="M227.1,102.751h-3.237V96.9q0-2.445-1.747-2.446a1.733,1.733,0,0,0-1.387.648,2.463,2.463,0,0,0-.545,1.644v6h-3.248V92.228h3.248v1.665h.041a3.72,3.72,0,0,1,3.38-1.921q3.494,0,3.494,4.337Z" transform="translate(-51.208 -21.709)" fill="#8cb30f"/>
    <path id="Path_75" data-name="Path 75" d="M239.675,101.72a4.8,4.8,0,0,1-2.168.38q-3.433,0-3.432-3.566v-4.82h-1.706V91.32h1.706v-2.27l3.237-.925v3.2h2.364v2.395h-2.364v4.254q0,1.644,1.3,1.644a2.2,2.2,0,0,0,1.059-.3Z" transform="translate(-54.85 -20.801)" fill="#8cb30f"/>
    <path id="Path_76" data-name="Path 76" d="M0,95.1,18.079,84.658l44.331,16.6L44.331,111.695Z" transform="translate(0 -19.983)" fill="#3e9925"/>
    <path id="Path_77" data-name="Path 77" d="M58.028,100.066,76.107,89.628V35.391L58.028,45.829Z" transform="translate(-13.697 -8.354)" fill="#8cb30f"/>
    <path id="Path_78" data-name="Path 78" d="M0,78.337,18.079,67.9V13.663L0,24.1Z" transform="translate(0 -3.225)" fill="#257b2a"/>
    <path id="Path_79" data-name="Path 79" d="M23.665,10.438,41.744,0,68,27.037,49.917,37.475Z" transform="translate(-5.586 0)" fill="#3e9925"/>
    <path id="Path_80" data-name="Path 80" d="M116.923,51.438h-3.329v-6h-6.1v6H104.17V36.7h3.319V42.58h6.1V36.7h3.329Z" transform="translate(-24.589 -8.663)" fill="#8cb30f"/>
    <path id="Path_81" data-name="Path 81" d="M134.12,48.324h-6.865q.165,2.292,2.888,2.292a5.636,5.636,0,0,0,3.053-.823v2.343a8.015,8.015,0,0,1-3.792.782,4.9,4.9,0,0,1-5.364-5.355,5.631,5.631,0,0,1,1.521-4.151,5.064,5.064,0,0,1,3.74-1.532,4.6,4.6,0,0,1,3.562,1.367,5.267,5.267,0,0,1,1.258,3.711Zm-3.011-1.994q0-2.261-1.829-2.261a1.745,1.745,0,0,0-1.351.647,2.934,2.934,0,0,0-.694,1.613Z" transform="translate(-29.279 -9.886)" fill="#8cb30f"/>
    <path id="Path_82" data-name="Path 82" d="M148.278,52.661h-3.073v-1.51h-.041a3.43,3.43,0,0,1-3.134,1.767,3.277,3.277,0,0,1-2.41-.868,3.112,3.112,0,0,1-.879-2.318q0-3.062,3.627-3.535l2.857-.38q0-1.727-1.87-1.727a6.389,6.389,0,0,0-3.577,1.12V42.765a8.043,8.043,0,0,1,1.856-.617,9.7,9.7,0,0,1,2.142-.267q4.5,0,4.5,4.491Zm-3.052-4.275v-.709l-1.911.247q-1.583.205-1.583,1.428a1.178,1.178,0,0,0,.386.91,1.481,1.481,0,0,0,1.043.354,1.926,1.926,0,0,0,1.49-.632,2.284,2.284,0,0,0,.575-1.6" transform="translate(-32.75 -9.886)" fill="#8cb30f"/>
    <rect id="Rectangle_7" data-name="Rectangle 7" width="3.248" height="15.579" transform="translate(118.098 27.196)" fill="#8cb30f"/>
    <path id="Path_83" data-name="Path 83" d="M168.486,51.629a4.8,4.8,0,0,1-2.168.38q-3.433,0-3.432-3.566v-4.82H161.18v-2.4h1.706v-2.27l3.237-.925v3.2h2.364v2.4h-2.364v4.254q0,1.644,1.3,1.644a2.2,2.2,0,0,0,1.059-.3Z" transform="translate(-38.046 -8.978)" fill="#8cb30f"/>
    <path id="Path_84" data-name="Path 84" d="M183.241,51.178H180V45.2q0-2.312-1.686-2.312a1.725,1.725,0,0,0-1.4.648,2.5,2.5,0,0,0-.535,1.644v6h-3.247V35.6h3.247v6.618h.041a3.689,3.689,0,0,1,3.238-1.819q3.576,0,3.576,4.316Z" transform="translate(-40.869 -8.403)" fill="#8cb30f"/>
    <path id="Path_85" data-name="Path 85" d="M199.31,42.217l-4.275,11.366q-1.541,4.1-4.645,4.1a5.958,5.958,0,0,1-1.943-.267v-2.59a2.736,2.736,0,0,0,1.408.38,1.759,1.759,0,0,0,1.747-1.182l.555-1.3-4.275-10.5h3.6l1.963,6.4a8.365,8.365,0,0,1,.288,1.408h.04a9.867,9.867,0,0,1,.339-1.387l1.984-6.423Z" transform="translate(-44.349 -9.965)" fill="#8cb30f"/>
    <path id="Path_86" data-name="Path 86" d="M104.17,76.484V61.747h5.364a6.7,6.7,0,0,1,3.792.9,2.908,2.908,0,0,1,1.325,2.549,3.017,3.017,0,0,1-.807,2.086,4.241,4.241,0,0,1-2.06,1.244v.04a4.091,4.091,0,0,1,2.513,1.161,3.248,3.248,0,0,1,.94,2.354,3.933,3.933,0,0,1-1.449,3.212,6.062,6.062,0,0,1-3.957,1.186Zm3.319-12.29v3.494h1.459a2.433,2.433,0,0,0,1.619-.5,1.7,1.7,0,0,0,.591-1.372q0-1.624-2.425-1.623Zm0,5.96v3.885h1.8a2.767,2.767,0,0,0,1.8-.535,1.786,1.786,0,0,0,.652-1.459,1.666,1.666,0,0,0-.642-1.387,2.843,2.843,0,0,0-1.793-.5Z" transform="translate(-24.589 -14.575)" fill="#8cb30f"/>
    <path id="Path_87" data-name="Path 87" d="M131.364,77.785h-3.237v-1.6h-.052a3.671,3.671,0,0,1-3.216,1.86q-3.659,0-3.659-4.429V67.262h3.237v6.063q0,2.23,1.768,2.23a1.751,1.751,0,0,0,1.4-.611,2.468,2.468,0,0,0,.524-1.66V67.262h3.237Z" transform="translate(-28.609 -15.877)" fill="#8cb30f"/>
    <path id="Path_88" data-name="Path 88" d="M139.657,64.051a1.9,1.9,0,0,1-1.346-.488,1.571,1.571,0,0,1-.524-1.2,1.516,1.516,0,0,1,.524-1.193,2.2,2.2,0,0,1,2.7,0,1.524,1.524,0,0,1,.519,1.193,1.566,1.566,0,0,1-.519,1.212,1.928,1.928,0,0,1-1.351.473m1.6,12.188h-3.248V65.716h3.248Z" transform="translate(-32.524 -14.331)" fill="#8cb30f"/>
    <rect id="Rectangle_8" data-name="Rectangle 8" width="3.248" height="15.579" transform="translate(111.47 46.329)" fill="#8cb30f"/>
    <path id="Path_89" data-name="Path 89" d="M163.845,76.223H160.6V74.774h-.041A3.64,3.64,0,0,1,157.3,76.48a3.991,3.991,0,0,1-3.176-1.392,5.766,5.766,0,0,1-1.2-3.89,6.273,6.273,0,0,1,1.325-4.183,4.324,4.324,0,0,1,3.474-1.572,2.954,2.954,0,0,1,2.836,1.459h.041V60.644h3.248Zm-3.186-5.118v-.791a2.49,2.49,0,0,0-.6-1.706,2.106,2.106,0,0,0-3.238.17,3.939,3.939,0,0,0-.606,2.328,3.408,3.408,0,0,0,.585,2.138,2.08,2.08,0,0,0,3.232-.041,3.3,3.3,0,0,0,.622-2.1" transform="translate(-36.096 -14.315)" fill="#8cb30f"/>
    <path id="Path_90" data-name="Path 90" d="M172.372,64.051a1.9,1.9,0,0,1-1.346-.488,1.573,1.573,0,0,1-.524-1.2,1.519,1.519,0,0,1,.524-1.193,2.2,2.2,0,0,1,2.7,0,1.525,1.525,0,0,1,.52,1.193,1.566,1.566,0,0,1-.52,1.212,1.927,1.927,0,0,1-1.351.473m1.6,12.188h-3.248V65.716h3.248Z" transform="translate(-40.246 -14.331)" fill="#8cb30f"/>
    <path id="Path_91" data-name="Path 91" d="M188.791,77.706h-3.237V71.859q0-2.447-1.747-2.446a1.733,1.733,0,0,0-1.387.648,2.463,2.463,0,0,0-.545,1.644v6h-3.248V67.183h3.248v1.665h.041a3.72,3.72,0,0,1,3.381-1.921q3.494,0,3.494,4.337Z" transform="translate(-42.164 -15.798)" fill="#8cb30f"/>
    <path id="Path_92" data-name="Path 92" d="M205.418,76.5a5.955,5.955,0,0,1-1.7,4.537,6.873,6.873,0,0,1-4.912,1.608,7.787,7.787,0,0,1-3.371-.607V79.31a6.455,6.455,0,0,0,3.278.946,3.53,3.53,0,0,0,2.549-.869,3.117,3.117,0,0,0,.9-2.358V76.2h-.041a3.626,3.626,0,0,1-3.278,1.768,3.941,3.941,0,0,1-3.2-1.419,5.746,5.746,0,0,1-1.182-3.8,6.405,6.405,0,0,1,1.315-4.245,4.3,4.3,0,0,1,3.464-1.572,3.2,3.2,0,0,1,2.877,1.48h.041V67.183h3.248Zm-3.206-3.854v-.833a2.56,2.56,0,0,0-.591-1.7,1.913,1.913,0,0,0-1.537-.7,1.985,1.985,0,0,0-1.7.843,3.962,3.962,0,0,0-.617,2.374,3.345,3.345,0,0,0,.585,2.081,1.91,1.91,0,0,0,1.6.765,1.987,1.987,0,0,0,1.629-.775,3.18,3.18,0,0,0,.622-2.05" transform="translate(-45.905 -15.798)" fill="#8cb30f"/>
    <path id="Path_93" data-name="Path 93" d="M120.962,101.529h-3.278V92.711q0-1.428.123-3.155h-.082a15.513,15.513,0,0,1-.463,1.953l-3.453,10.02H111.1l-3.515-9.917a19.458,19.458,0,0,1-.462-2.056h-.092q.133,2.18.134,3.823v8.15H104.17V86.792h4.861l3.012,8.735a12.4,12.4,0,0,1,.524,2.107h.061a21.2,21.2,0,0,1,.586-2.128l3.011-8.714h4.737Z" transform="translate(-24.589 -20.487)" fill="#8cb30f"/>
    <path id="Path_94" data-name="Path 94" d="M134.94,103.009a5.656,5.656,0,0,1-4.136-1.474,6.1,6.1,0,0,1,.057-8.088,5.9,5.9,0,0,1,4.224-1.474,5.589,5.589,0,0,1,4.111,1.474,5.244,5.244,0,0,1,1.49,3.9,5.563,5.563,0,0,1-1.536,4.141,5.718,5.718,0,0,1-4.209,1.521m.083-8.55a2.165,2.165,0,0,0-1.788.791,3.49,3.49,0,0,0-.637,2.24q0,3.032,2.446,3.032,2.333,0,2.333-3.114,0-2.95-2.354-2.95" transform="translate(-30.52 -21.71)" fill="#8cb30f"/>
    <path id="Path_95" data-name="Path 95" d="M156.571,92.308l-3.915,10.523h-3.7l-3.73-10.523H148.7l1.829,6.484a9.491,9.491,0,0,1,.36,1.871h.041a10.494,10.494,0,0,1,.38-1.809l1.87-6.546Z" transform="translate(-34.28 -21.789)" fill="#8cb30f"/>
    <path id="Path_96" data-name="Path 96" d="M171.153,98.415h-6.865q.165,2.292,2.889,2.292a5.635,5.635,0,0,0,3.052-.823v2.343a8.015,8.015,0,0,1-3.792.782,4.9,4.9,0,0,1-5.364-5.355,5.631,5.631,0,0,1,1.521-4.151,5.064,5.064,0,0,1,3.74-1.532,4.6,4.6,0,0,1,3.562,1.367,5.267,5.267,0,0,1,1.258,3.711Zm-3.011-1.994q0-2.261-1.829-2.261a1.745,1.745,0,0,0-1.351.647,2.934,2.934,0,0,0-.694,1.613Z" transform="translate(-38.021 -21.709)" fill="#8cb30f"/>
    <path id="Path_97" data-name="Path 97" d="M193.508,102.751h-3.237v-6q0-2.292-1.686-2.292a1.549,1.549,0,0,0-1.3.688,2.833,2.833,0,0,0-.5,1.717v5.889h-3.248V96.688q0-2.23-1.655-2.23a1.586,1.586,0,0,0-1.331.658,2.894,2.894,0,0,0-.5,1.788v5.847H176.8V92.228h3.248v1.644h.041a3.983,3.983,0,0,1,3.4-1.9,3.029,3.029,0,0,1,3.052,1.963,3.893,3.893,0,0,1,3.536-1.963q3.432,0,3.432,4.234Z" transform="translate(-41.733 -21.709)" fill="#8cb30f"/>
    <path id="Path_98" data-name="Path 98" d="M211.294,98.415h-6.865q.165,2.292,2.889,2.292a5.635,5.635,0,0,0,3.052-.823v2.343a8.015,8.015,0,0,1-3.792.782,4.9,4.9,0,0,1-5.365-5.355,5.631,5.631,0,0,1,1.521-4.151,5.064,5.064,0,0,1,3.74-1.532,4.6,4.6,0,0,1,3.562,1.367,5.267,5.267,0,0,1,1.258,3.711Zm-3.011-1.994q0-2.261-1.829-2.261a1.745,1.745,0,0,0-1.351.647,2.934,2.934,0,0,0-.694,1.613Z" transform="translate(-47.496 -21.709)" fill="#8cb30f"/>
    <path id="Path_99" data-name="Path 99" d="M227.1,102.751h-3.237V96.9q0-2.445-1.747-2.446a1.733,1.733,0,0,0-1.387.648,2.463,2.463,0,0,0-.545,1.644v6h-3.248V92.228h3.248v1.665h.041a3.72,3.72,0,0,1,3.38-1.921q3.494,0,3.494,4.337Z" transform="translate(-51.208 -21.709)" fill="#8cb30f"/>
    <path id="Path_100" data-name="Path 100" d="M239.675,101.72a4.8,4.8,0,0,1-2.168.38q-3.433,0-3.432-3.566v-4.82h-1.706V91.32h1.706v-2.27l3.237-.925v3.2h2.364v2.395h-2.364v4.254q0,1.644,1.3,1.644a2.2,2.2,0,0,0,1.059-.3Z" transform="translate(-54.85 -20.801)" fill="#8cb30f"/>
  </g>
</svg>
